<svg width="1100" height="477" viewBox="0 0 1100 477" fill="none" xmlns="http://www.w3.org/2000/svg">
<path d="M851.283 0.140684C867.681 -0.405637 884.088 0.640016 900.276 3.26336C962.982 13.9749 1018.29 46.4831 1055.51 98.4968C1132.73 206.409 1106.82 357.565 998.009 433.479C945.083 470.312 879.692 484.587 816.248 473.148C750.925 461.45 698.301 425.725 660.573 371.672C627.492 468.474 516.075 491.879 457.362 403.36C448.299 389.69 440.337 371.437 432.859 356.608L396.842 285.1C394.777 281.013 392.219 276.02 390.281 272.243C378.05 248.452 364.749 266.461 358.083 282.389C356.487 286.199 352.422 293.811 350.431 297.772L318.552 360.687C309.048 379.451 301.256 397.301 288.412 414.245C258.858 453.226 208.713 468.592 162.862 450.733C131.184 438.397 110.001 412.885 96.4922 382.506C93.1682 375.239 88.3268 359.227 85.7325 351.305L67.2754 294.977L19.9228 150.762C13.5901 131.214 2.9847 104.302 0.397102 84.7658C-5.55312 39.824 56.941 17.2226 82.2944 53.5794C93.1011 69.0769 99.8733 100.175 105.779 119.106L153.422 271.883L169.241 323.091C172.983 335.175 176.501 352.396 185.46 361.283C189.794 365.538 195.644 367.896 201.718 367.837C223.147 367.61 233.354 339.95 241.59 323.661L272.299 262.517C283.199 240.664 294.91 212.031 311.712 195.048C352.376 153.946 427.253 162.633 456.347 213.166C464.034 226.519 470.712 240.639 477.584 254.419L511.475 322.31C517.907 335.133 524.34 350.575 534.229 360.922C546.089 373.317 566.178 368.198 574.305 353.99C582.223 340.152 586.719 323.317 591.265 308.002C600.232 277.312 608.703 246.48 616.688 215.525C622.308 193.865 624.598 179.448 632.675 158.021C644.351 126.996 661.856 98.4935 684.234 74.0509C727.834 26.4077 787.638 3.01663 851.283 0.140684ZM868.084 395.22C953.546 390.193 1019.01 317.208 1014.79 231.651C1010.57 146.099 938.247 79.9186 852.701 83.3291C766.006 86.7866 698.77 160.335 703.048 247.042C707.317 333.749 781.464 400.322 868.084 395.22Z" fill="#D4EF06"/>
</svg>
